<?xml version="1.0" encoding="iso-8859-1"?>
<!-- Uploaded to: SVG Repo, www.svgrepo.com, Generator: SVG Repo Mixer Tools -->
<svg height="800px" width="800px" version="1.1" id="Layer_1" xmlns="http://www.w3.org/2000/svg" xmlns:xlink="http://www.w3.org/1999/xlink" 
	 viewBox="0 0 507.733 507.733" xml:space="preserve">
<g transform="translate(1)">
	<path style="fill:#C49AE9;" d="M252.867,59.733L312.6,179.2h-17.067H210.2h-17.067L252.867,59.733z M65.133,128l59.733,119.467
		H107.8H22.467H5.4L65.133,128z M440.6,128l59.733,119.467h-17.067h-85.333h-17.067L440.6,128z"/>
	<path style="fill:#7EE1E6;" d="M389.4,460.8c5.12,0,8.533,4.267,8.533,8.533c0-4.267,3.413-8.533,8.533-8.533
		c5.12,0,8.533,4.267,8.533,8.533c0-4.267,3.413-8.533,8.533-8.533s8.533,4.267,8.533,8.533c0-4.267,3.413-8.533,8.533-8.533
		c5.12,0,8.533,4.267,8.533,8.533c0-4.267,3.413-8.533,8.533-8.533s8.533,4.267,8.533,8.533c0-4.267,3.413-8.533,8.533-8.533
		s8.533,4.267,8.533,8.533c0-4.267,3.413-8.533,8.533-8.533s8.533,4.267,8.533,8.533v34.133H329.667v-34.133
		c0-4.267,3.413-8.533,8.533-8.533s8.533,4.267,8.533,8.533c0-4.267,3.413-8.533,8.533-8.533s8.533,4.267,8.533,8.533
		c0-4.267,3.413-8.533,8.533-8.533s8.533,4.267,8.533,8.533C380.867,465.067,384.28,460.8,389.4,460.8z M99.267,460.8
		c4.267,0,8.533,4.267,8.533,8.533c0-4.267,4.267-8.533,8.533-8.533c4.267,0,8.533,4.267,8.533,8.533
		c0-4.267,4.267-8.533,8.533-8.533s8.533,4.267,8.533,8.533c0-4.267,4.267-8.533,8.533-8.533s8.533,4.267,8.533,8.533
		c0-4.267,4.267-8.533,8.533-8.533c5.12,0,8.533,4.267,8.533,8.533v34.133H5.4v-34.133c0-4.267,4.267-8.533,8.533-8.533
		s8.533,4.267,8.533,8.533c0-4.267,4.267-8.533,8.533-8.533s8.533,4.267,8.533,8.533c0-4.267,4.267-8.533,8.533-8.533
		s8.533,4.267,8.533,8.533c0-4.267,4.267-8.533,8.533-8.533c4.267,0,8.533,4.267,8.533,8.533c0-4.267,4.267-8.533,8.533-8.533
		s8.533,4.267,8.533,8.533C90.733,465.067,95,460.8,99.267,460.8z"/>
	<polygon style="fill:#C49AE9;" points="252.867,42.667 312.6,42.667 312.6,8.533 252.867,8.533 	"/>
	<path style="fill:#FFD0A1;" d="M295.533,426.667v76.8H210.2v-76.8c0-23.893,18.773-42.667,42.667-42.667
		S295.533,402.773,295.533,426.667"/>
	<path style="fill:#ECF4F7;" d="M227.267,315.733v-17.067H210.2h-17.067V332.8h-51.2v-34.133H107.8V460.8h4.267h4.267
		c-4.267,0-8.533,4.267-8.533,8.533c0-4.267-4.267-8.533-8.533-8.533c-4.267,0-8.533,4.267-8.533,8.533
		c0-4.267-4.267-8.533-8.533-8.533s-8.533,4.267-8.533,8.533c0-4.267-4.267-8.533-8.533-8.533c-4.267,0-8.533,4.267-8.533,8.533
		c0-4.267-4.267-8.533-8.533-8.533s-8.533,4.267-8.533,8.533c0-4.267-4.267-8.533-8.533-8.533h-8.533V247.467H107.8v51.2V460.8
		h4.267h4.267c4.267,0,8.533,4.267,8.533,8.533c0-4.267,4.267-8.533,8.533-8.533s8.533,4.267,8.533,8.533
		c0-4.267,4.267-8.533,8.533-8.533s8.533,4.267,8.533,8.533c0-4.267,4.267-8.533,8.533-8.533c5.12,0,8.533,4.267,8.533,8.533v34.133
		H210.2v-76.8c0-23.893,18.773-42.667,42.667-42.667s42.667,18.773,42.667,42.667v76.8h34.133v-34.133
		c0-4.267,3.413-8.533,8.533-8.533s8.533,4.267,8.533,8.533c0-4.267,3.413-8.533,8.533-8.533s8.533,4.267,8.533,8.533
		c0-4.267,3.413-8.533,8.533-8.533s8.533,4.267,8.533,8.533c0-4.267,3.413-8.533,8.533-8.533s8.533,4.267,8.533,8.533
		c0-4.267,3.413-8.533,8.533-8.533h-8.533v-81.067V460.8h8.533c5.12,0,8.533,4.267,8.533,8.533c0-4.267,3.413-8.533,8.533-8.533
		s8.533,4.267,8.533,8.533c0-4.267,3.413-8.533,8.533-8.533c5.12,0,8.533,4.267,8.533,8.533c0-4.267,3.413-8.533,8.533-8.533
		s8.533,4.267,8.533,8.533c0-4.267,3.413-8.533,8.533-8.533s8.533,4.267,8.533,8.533c0-4.267,3.413-8.533,8.533-8.533h-8.533
		V247.467h-85.333v51.2v81.067v-81.067H363.8V332.8h-51.2v-34.133h-17.067H287h8.533V179.2H210.2v119.467h17.067V315.733z
		 M252.867,332.8h25.6v-17.067V332.8H252.867z"/>
	<circle style="fill:#FFD0A1;" cx="184.6" cy="68.267" r="8.533"/>
	<circle style="fill:#7EE1E6;" cx="380.867" cy="8.533" r="8.533"/>
	<circle style="fill:#C49AE9;" cx="150.467" cy="179.2" r="8.533"/>
</g>
<path style="fill:#51565F;" d="M501.333,507.733H330.667c-2.56,0-4.267-1.707-4.267-4.267v-34.133c0-6.827,5.973-12.8,12.8-12.8
	c3.413,0,5.973,0.853,8.533,3.413c4.267-4.267,12.8-4.267,17.067,0c4.267-4.267,12.8-4.267,17.067,0
	c4.267-4.267,12.8-4.267,17.067,0c4.267-4.267,12.8-4.267,17.067,0c4.267-4.267,12.8-4.267,17.067,0
	c4.267-4.267,12.8-4.267,17.067,0c4.267-4.267,12.8-4.267,17.067,0c4.267-4.267,12.8-4.267,17.067,0
	c2.56-1.707,5.12-3.413,8.533-3.413c6.827,0,12.8,5.973,12.8,12.8v34.133C505.6,506.027,503.893,507.733,501.333,507.733z
	 M334.933,499.2h162.133v-29.867c0-2.56-1.707-4.267-4.267-4.267s-4.267,1.707-4.267,4.267c0,2.56-1.707,4.267-4.267,4.267
	S480,471.893,480,469.333c0-2.56-1.707-4.267-4.267-4.267s-4.267,1.707-4.267,4.267c0,2.56-1.707,4.267-4.267,4.267
	s-4.267-1.707-4.267-4.267c0-2.56-1.707-4.267-4.267-4.267s-4.267,1.707-4.267,4.267c0,2.56-1.707,4.267-4.267,4.267
	s-4.267-1.707-4.267-4.267c0-2.56-1.707-4.267-4.267-4.267c-2.56,0-4.267,1.707-4.267,4.267c0,2.56-1.707,4.267-4.267,4.267
	s-4.267-1.707-4.267-4.267c0-2.56-1.707-4.267-4.267-4.267s-4.267,1.707-4.267,4.267c0,2.56-1.707,4.267-4.267,4.267
	s-4.267-1.707-4.267-4.267c0-2.56-1.707-4.267-4.267-4.267s-4.267,1.707-4.267,4.267c0,2.56-1.707,4.267-4.267,4.267
	s-4.267-1.707-4.267-4.267c0-2.56-1.707-4.267-4.267-4.267s-4.267,1.707-4.267,4.267c0,2.56-1.707,4.267-4.267,4.267
	s-4.267-1.707-4.267-4.267c0-2.56-1.707-4.267-4.267-4.267s-4.267,1.707-4.267,4.267c0,2.56-1.707,4.267-4.267,4.267
	s-4.267-1.707-4.267-4.267c0-2.56-1.707-4.267-4.267-4.267S352,466.773,352,469.333c0,2.56-1.707,4.267-4.267,4.267
	c-2.56,0-4.267-1.707-4.267-4.267c0-2.56-1.707-4.267-4.267-4.267s-4.267,1.707-4.267,4.267V499.2z M296.533,507.733H211.2
	c-2.56,0-4.267-1.707-4.267-4.267v-76.8c0-25.6,21.333-46.933,46.933-46.933s46.933,21.333,46.933,46.933v76.8
	C300.8,506.027,299.093,507.733,296.533,507.733z M215.467,499.2h76.8v-25.6h-76.8V499.2z M215.467,465.067h76.8v-25.6h-76.8
	V465.067z M215.467,430.933h76.8v-4.267c0-21.333-17.067-38.4-38.4-38.4s-38.4,17.067-38.4,38.4V430.933z M177.067,507.733H6.4
	c-2.56,0-4.267-1.707-4.267-4.267v-34.133c0-6.827,5.973-12.8,12.8-12.8c3.413,0,5.973,0.853,8.533,3.413
	c4.267-4.267,12.8-4.267,17.067,0c4.267-4.267,12.8-4.267,17.067,0c4.267-4.267,12.8-4.267,17.067,0
	c4.267-4.267,12.8-4.267,17.067,0c4.267-4.267,12.8-4.267,17.067,0c4.267-4.267,12.8-4.267,17.067,0
	c4.267-4.267,12.8-4.267,17.067,0c4.267-4.267,12.8-4.267,17.067,0c2.56-1.707,5.12-3.413,8.533-3.413c6.827,0,12.8,5.973,12.8,12.8
	v34.133C181.333,506.027,179.627,507.733,177.067,507.733z M10.667,499.2H172.8v-29.867c0-2.56-1.707-4.267-4.267-4.267
	s-4.267,1.707-4.267,4.267c0,2.56-1.707,4.267-4.267,4.267c-2.56,0-4.267-1.707-4.267-4.267c0-2.56-1.707-4.267-4.267-4.267
	s-4.267,1.707-4.267,4.267c0,2.56-1.707,4.267-4.267,4.267c-2.56,0-4.267-1.707-4.267-4.267c0-2.56-1.707-4.267-4.267-4.267
	s-4.267,1.707-4.267,4.267c0,2.56-1.707,4.267-4.267,4.267s-4.267-1.707-4.267-4.267c0-2.56-1.707-4.267-4.267-4.267
	c-2.56,0-4.267,1.707-4.267,4.267c0,2.56-1.707,4.267-4.267,4.267c-2.56,0-4.267-1.707-4.267-4.267c0-2.56-1.707-4.267-4.267-4.267
	c-2.56,0-4.267,1.707-4.267,4.267c0,2.56-1.707,4.267-4.267,4.267s-4.267-1.707-4.267-4.267c0-2.56-1.707-4.267-4.267-4.267
	s-4.267,1.707-4.267,4.267c0,2.56-1.707,4.267-4.267,4.267s-4.267-1.707-4.267-4.267c0-2.56-1.707-4.267-4.267-4.267
	c-2.56,0-4.267,1.707-4.267,4.267c0,2.56-1.707,4.267-4.267,4.267c-2.56,0-4.267-1.707-4.267-4.267c0-2.56-1.707-4.267-4.267-4.267
	s-4.267,1.707-4.267,4.267c0,2.56-1.707,4.267-4.267,4.267c-2.56,0-4.267-1.707-4.267-4.267c0-2.56-1.707-4.267-4.267-4.267
	c-2.56,0-4.267,1.707-4.267,4.267c0,2.56-1.707,4.267-4.267,4.267s-4.267-1.707-4.267-4.267c0-2.56-1.707-4.267-4.267-4.267
	s-4.267,1.707-4.267,4.267V499.2z M23.467,439.467c-2.56,0-4.267-1.707-4.267-4.267V251.733H6.4c-2.56,0-4.267-1.707-4.267-4.267
	c0-2.56,1.707-4.267,4.267-4.267h119.467c2.56,0,4.267,1.707,4.267,4.267c0,2.56-1.707,4.267-4.267,4.267h-12.8v12.8
	c0,2.56-1.707,4.267-4.267,4.267c-2.56,0-4.267-1.707-4.267-4.267v-12.8h-76.8V435.2C27.733,437.76,26.027,439.467,23.467,439.467z
	 M484.267,430.933c-2.56,0-4.267-1.707-4.267-4.267V251.733h-76.8v12.8c0,2.56-1.707,4.267-4.267,4.267s-4.267-1.707-4.267-4.267
	v-12.8h-12.8c-2.56,0-4.267-1.707-4.267-4.267c0-2.56,1.707-4.267,4.267-4.267h119.467c2.56,0,4.267,1.707,4.267,4.267
	c0,2.56-1.707,4.267-4.267,4.267h-12.8v174.933C488.533,429.227,486.827,430.933,484.267,430.933z M398.933,430.933
	c-2.56,0-4.267-1.707-4.267-4.267V302.933h-25.6V332.8c0,2.56-1.707,4.267-4.267,4.267h-51.2c-2.56,0-4.267-1.707-4.267-4.267
	v-29.867h-25.6V332.8c0,2.56-1.707,4.267-4.267,4.267h-51.2c-2.56,0-4.267-1.707-4.267-4.267v-29.867h-25.6V332.8
	c0,2.56-1.707,4.267-4.267,4.267h-51.2c-2.56,0-4.267-1.707-4.267-4.267v-29.867h-25.6v123.733c0,2.56-1.707,4.267-4.267,4.267
	c-2.56,0-4.267-1.707-4.267-4.267v-128c0-2.56,1.707-4.267,4.267-4.267h34.133c2.56,0,4.267,1.707,4.267,4.267v29.867h42.667
	v-29.867c0-2.56,1.707-4.267,4.267-4.267h34.133c2.56,0,4.267,1.707,4.267,4.267v29.867H275.2v-29.867
	c0-2.56,1.707-4.267,4.267-4.267H313.6c2.56,0,4.267,1.707,4.267,4.267v29.867h42.667v-29.867c0-2.56,1.707-4.267,4.267-4.267
	h34.133c2.56,0,4.267,1.707,4.267,4.267v128C403.2,429.227,401.493,430.933,398.933,430.933z M441.6,388.267
	c-2.56,0-4.267-1.707-4.267-4.267v-17.067c0-2.56,1.707-4.267,4.267-4.267c2.56,0,4.267,1.707,4.267,4.267V384
	C445.867,386.56,444.16,388.267,441.6,388.267z M66.133,388.267c-2.56,0-4.267-1.707-4.267-4.267v-17.067
	c0-2.56,1.707-4.267,4.267-4.267c2.56,0,4.267,1.707,4.267,4.267V384C70.4,386.56,68.693,388.267,66.133,388.267z M441.6,320
	c-2.56,0-4.267-1.707-4.267-4.267v-17.067c0-2.56,1.707-4.267,4.267-4.267c2.56,0,4.267,1.707,4.267,4.267v17.067
	C445.867,318.293,444.16,320,441.6,320z M66.133,320c-2.56,0-4.267-1.707-4.267-4.267v-17.067c0-2.56,1.707-4.267,4.267-4.267
	c2.56,0,4.267,1.707,4.267,4.267v17.067C70.4,318.293,68.693,320,66.133,320z M296.533,268.8c-2.56,0-4.267-1.707-4.267-4.267
	v-81.067h-76.8v81.067c0,2.56-1.707,4.267-4.267,4.267s-4.267-1.707-4.267-4.267v-81.067h-12.8c-2.56,0-4.267-1.707-4.267-4.267
	c0-2.56,1.707-4.267,4.267-4.267H313.6c2.56,0,4.267,1.707,4.267,4.267c0,2.56-1.707,4.267-4.267,4.267h-12.8v81.067
	C300.8,267.093,299.093,268.8,296.533,268.8z M253.867,251.733c-2.56,0-4.267-1.707-4.267-4.267V230.4
	c0-2.56,1.707-4.267,4.267-4.267c2.56,0,4.267,1.707,4.267,4.267v17.067C258.133,250.027,256.427,251.733,253.867,251.733z
	 M484.267,217.6c-1.707,0-3.413-0.853-3.413-2.56l-34.987-69.12v67.413c0,2.56-1.707,4.267-4.267,4.267
	c-2.56,0-4.267-1.707-4.267-4.267V145.92l-34.987,69.12c-0.853,1.707-3.413,2.56-5.973,1.707c-1.707-0.853-2.56-3.413-1.707-5.973
	l42.667-85.333c0,0,0-0.853,0.853-0.853l0,0l0,0c0,0,0,0,0.853-0.853l0,0l0,0c0.853-0.853,1.707-0.853,2.56-0.853l0,0l0,0l0,0l0,0
	l0,0l0,0l0,0c0.853,0,1.707,0,2.56,0.853l0,0l0,0c0,0,0,0,0.853,0.853l0,0l0,0c0,0,0,0.853,0.853,0.853l42.667,85.333
	c0.853,1.707,0,4.267-1.707,5.973C485.973,217.6,485.12,217.6,484.267,217.6z M108.8,217.6c-1.707,0-3.413-0.853-3.413-2.56
	L70.4,145.92v67.413c0,2.56-1.707,4.267-4.267,4.267c-2.56,0-4.267-1.707-4.267-4.267V145.92L26.88,215.04
	c-0.853,1.707-3.413,2.56-5.973,1.707c-1.707-0.853-2.56-3.413-1.707-5.973l42.667-85.333c0,0,0-0.853,0.853-0.853l0,0l0,0
	c0,0,0,0,0.853-0.853l0,0c0.853-0.853,1.707-0.853,2.56-0.853l0,0l0,0l0,0l0,0l0,0l0,0l0,0c0.853,0,1.707,0,2.56,0.853l0,0
	c0,0,0,0,0.853,0.853l0,0l0,0c0,0,0,0.853,0.853,0.853l42.667,85.333c0.853,1.707,0,4.267-1.707,5.973
	C110.507,217.6,109.653,217.6,108.8,217.6z M296.533,149.333c-1.707,0-3.413-0.853-3.413-2.56l-34.987-69.12v67.413
	c0,2.56-1.707,4.267-4.267,4.267c-2.56,0-4.267-1.707-4.267-4.267V77.653l-34.987,69.12c-0.853,1.707-3.413,2.56-5.973,1.707
	c-1.707-0.853-2.56-3.413-1.707-5.973l41.813-84.48V8.533c0-2.56,1.707-4.267,4.267-4.267h59.733c2.56,0,4.267,1.707,4.267,4.267
	v34.133c0,2.56-1.707,4.267-4.267,4.267h-34.133c-2.56,0-4.267-1.707-4.267-4.267c0-2.56,1.707-4.267,4.267-4.267h29.867V12.8h-51.2
	v46.08l41.813,84.48c0.853,1.707,0,4.267-1.707,5.973C298.24,149.333,297.387,149.333,296.533,149.333z M416,89.6
	c-2.56,0-4.267-1.707-4.267-4.267v-4.267h-4.267c-2.56,0-4.267-1.707-4.267-4.267s1.707-4.267,4.267-4.267h4.267v-4.267
	c0-2.56,1.707-4.267,4.267-4.267s4.267,1.707,4.267,4.267v4.267h4.267c2.56,0,4.267,1.707,4.267,4.267s-1.707,4.267-4.267,4.267
	h-4.267v4.267C420.267,87.893,418.56,89.6,416,89.6z M23.467,64c-2.56,0-4.267-1.707-4.267-4.267v-12.8H6.4
	c-2.56,0-4.267-1.707-4.267-4.267c0-2.56,1.707-4.267,4.267-4.267h12.8V25.6c0-2.56,1.707-4.267,4.267-4.267
	s4.267,1.707,4.267,4.267v12.8h12.8c2.56,0,4.267,1.707,4.267,4.267c0,2.56-1.707,4.267-4.267,4.267h-12.8v12.8
	C27.733,62.293,26.027,64,23.467,64z M177.067,29.867c-2.56,0-4.267-1.707-4.267-4.267v-4.267h-4.267
	c-2.56,0-4.267-1.707-4.267-4.267s1.707-4.267,4.267-4.267h4.267V8.533c0-2.56,1.707-4.267,4.267-4.267s4.267,1.707,4.267,4.267
	V12.8h4.267c2.56,0,4.267,1.707,4.267,4.267s-1.707,4.267-4.267,4.267h-4.267V25.6C181.333,28.16,179.627,29.867,177.067,29.867z"/>
</svg>