<?xml version="1.0" encoding="iso-8859-1"?>
<!-- Uploaded to: SVG Repo, www.svgrepo.com, Generator: SVG Repo Mixer Tools -->
<svg version="1.1" id="Layer_1" xmlns="http://www.w3.org/2000/svg" xmlns:xlink="http://www.w3.org/1999/xlink" 
	 viewBox="0 0 512 512" xml:space="preserve">
<path style="fill:#E7ECED;" d="M256,7.918c137.026,0,248.082,111.056,248.082,248.082S393.026,504.082,256,504.082
	S7.918,393.026,7.918,256S118.974,7.918,256,7.918z M451.299,256c0-107.889-87.409-195.299-195.299-195.299
	S60.701,148.111,60.701,256S148.111,451.299,256,451.299S451.299,363.889,451.299,256z"/>
<g>
	<path style="fill:#AFB6BB;" d="M300.866,187.381c16.046,0,29.031,12.985,29.031,29.031s-12.985,29.031-29.031,29.031
		s-29.031-12.985-29.031-29.031S284.82,187.381,300.866,187.381z"/>
	<path style="fill:#AFB6BB;" d="M211.134,187.381c16.046,0,29.031,12.985,29.031,29.031s-12.985,29.031-29.031,29.031
		s-29.031-12.985-29.031-29.031S195.088,187.381,211.134,187.381z"/>
</g>
<path style="fill:#7E8488;" d="M308.784,382.68H203.217v-55.528c-34.626-18.791-58.062-55.423-58.062-97.544
	c0-61.229,49.617-110.845,110.845-110.845s110.845,49.617,110.845,110.845c0,42.121-23.436,78.753-58.062,97.544V382.68z
	 M329.897,216.412c0-16.046-12.985-29.031-29.031-29.031s-29.031,12.985-29.031,29.031s12.985,29.031,29.031,29.031
	S329.897,232.459,329.897,216.412z M240.165,216.412c0-16.046-12.985-29.031-29.031-29.031s-29.031,12.985-29.031,29.031
	s12.985,29.031,29.031,29.031S240.165,232.459,240.165,216.412z"/>
<path style="fill:#F25B22;" d="M256,60.701c107.889,0,195.299,87.409,195.299,195.299S363.889,451.299,256,451.299
	S60.701,363.889,60.701,256S148.111,60.701,256,60.701z M308.784,327.152c34.626-18.791,58.062-55.423,58.062-97.544
	c0-61.229-49.616-110.845-110.845-110.845s-110.845,49.617-110.845,110.845c0,42.121,23.436,78.753,58.062,97.544v55.528h105.567
	V327.152z"/>
<path style="fill:#686E71;" d="M145.155,229.608c0,42.121,23.436,78.753,58.062,97.544v55.528H256V118.763
	C194.771,118.763,145.155,168.379,145.155,229.608z M211.134,245.443c-16.046,0-29.031-12.985-29.031-29.031
	s12.985-29.031,29.031-29.031s29.031,12.985,29.031,29.031S227.18,245.443,211.134,245.443z"/>
<path style="fill:#D3501F;" d="M334.757,307.413c-7.651,7.75-16.315,14.496-25.974,19.739v55.528H203.217v-55.528
	c-34.626-18.791-58.062-55.423-58.062-97.544c0-38.218,19.336-71.908,48.756-91.836c-7.831-19.068-14.078-38.942-18.658-59.456
	C107.723,109.049,60.701,176.945,60.701,256c0,107.889,87.409,195.299,195.299,195.299c73.571,0,137.557-40.687,170.859-100.756
	C393.939,340.422,363.034,325.77,334.757,307.413z"/>
<path d="M256,512c-68.386,0-132.676-26.627-181.025-74.975C26.627,388.676,0,324.386,0,256S26.627,123.324,74.975,74.975
	C123.324,26.627,187.614,0,256,0s132.676,26.627,181.025,74.975C485.373,123.324,512,187.614,512,256
	s-26.627,132.676-74.975,181.025C388.676,485.373,324.386,512,256,512z M256,15.835c-64.156,0-124.469,24.979-169.828,70.337
	C40.814,131.531,15.835,191.844,15.835,256s24.979,124.469,70.337,169.828c45.359,45.358,105.672,70.337,169.828,70.337
	s124.469-24.979,169.828-70.337c45.358-45.359,70.337-105.672,70.337-169.828s-24.979-124.469-70.337-169.828
	C380.469,40.814,320.156,15.835,256,15.835z"/>
<path d="M256,459.217c-54.295,0-105.331-21.135-143.706-59.51S52.784,310.295,52.784,256s21.135-105.331,59.51-143.706
	S201.705,52.784,256,52.784s105.331,21.135,143.706,59.51s59.51,89.411,59.51,143.706s-21.135,105.331-59.51,143.706
	S310.295,459.217,256,459.217z M256,68.619C152.677,68.619,68.619,152.677,68.619,256S152.677,443.381,256,443.381
	S443.381,359.323,443.381,256S359.323,68.619,256,68.619z"/>
<path d="M316.701,390.598H195.299v-58.841c-35.934-21.395-58.062-60.105-58.062-102.149c0-65.485,53.278-118.763,118.763-118.763
	s118.763,53.278,118.763,118.763c0,42.044-22.128,80.753-58.062,102.149V390.598z M211.134,374.763h89.732v-52.322l4.141-2.248
	c33.26-18.05,53.92-52.76,53.92-90.585c0-56.755-46.173-102.928-102.928-102.928s-102.928,46.173-102.928,102.928
	c0,37.825,20.661,72.535,53.92,90.586l4.141,2.248V374.763z"/>
<rect x="248.082" y="319.34" style="fill:#FFFFFF;" width="15.835" height="55.254"/>
<path d="M211.134,253.361c-20.373,0-36.948-16.575-36.948-36.948s16.575-36.948,36.948-36.948s36.948,16.575,36.948,36.948
	S231.507,253.361,211.134,253.361z M211.134,195.299c-11.642,0-21.113,9.471-21.113,21.113c0,11.642,9.471,21.113,21.113,21.113
	c11.642,0,21.113-9.471,21.113-21.113C232.247,204.77,222.776,195.299,211.134,195.299z"/>
<path d="M300.866,253.361c-20.373,0-36.948-16.575-36.948-36.948s16.575-36.948,36.948-36.948s36.948,16.575,36.948,36.948
	S321.239,253.361,300.866,253.361z M300.866,195.299c-11.642,0-21.113,9.471-21.113,21.113c0,11.642,9.471,21.113,21.113,21.113
	c11.642,0,21.113-9.471,21.113-21.113C321.979,204.77,312.508,195.299,300.866,195.299z"/>
<g>
	<rect x="240.165" y="274.474" style="fill:#FFFFFF;" width="31.67" height="15.835"/>
	<path style="fill:#FFFFFF;" d="M150.697,384.689C111.953,352.979,89.732,306.075,89.732,256h15.835
		c0,45.306,20.105,87.745,55.159,116.436L150.697,384.689z"/>
	<path style="fill:#FFFFFF;" d="M362.747,383.469l-10.173-12.134c34.228-28.698,53.859-70.736,53.859-115.335h15.835
		C422.268,305.295,400.573,351.756,362.747,383.469z"/>
</g>
</svg>