<?xml version="1.0" encoding="iso-8859-1"?>
<!-- Uploaded to: SVG Repo, www.svgrepo.com, Generator: SVG Repo Mixer Tools -->
<svg height="800px" width="800px" version="1.1" id="Layer_1" xmlns="http://www.w3.org/2000/svg" xmlns:xlink="http://www.w3.org/1999/xlink" 
	 viewBox="0 0 505.475 505.475" xml:space="preserve">
<polygon style="fill:#FFFFFF;" points="320.375,10.488 176.175,10.488 176.175,159.788 320.375,159.788 "/>
<g transform="translate(1)">
	<g>
		<path style="fill:#AE938D;" d="M456.775,248.888l-63.1-66.6l-204.9,204.8l66.6,66.6c29.9,29.9,70,44.4,109.2,41.8l1.9-0.1
			c33.2-1.8,63.6-16.1,90-42.5c26.2-26.2,41.8-60,42.9-94.6c0-0.1,0.1-0.4,0.1-0.9C500.275,317.988,486.575,278.788,456.775,248.888
			z"/>
		<path style="fill:#AAB1BA;" d="M497.975,356.088L497.975,356.088c-0.9,35-15.4,70-41.8,96.4c-26.5,26.5-58.9,40.1-92.2,41.8v-1.7
			c1.7-23,5.1-34.1,5.1-34.1c6.8-22.2,18.8-43.5,36.7-61.4C430.475,371.388,462.075,357.788,497.975,356.088z"/>
	</g>
	<path style="fill:#E4F2DE;" d="M300.675,159.788l18.8-55.4l-102.5-93.9l-41,97.8l-60.1,60.1l-0.5,2.5l-111.7,44.3l102.4,102.4
		l58.9-19.6l22.2,89.6l205.6-204.8L300.675,159.788z M199.575,134.488v-0.7l0.3,0.3L199.575,134.488z"/>
	<polygon style="fill:#AE938D;" points="176.575,107.788 115.975,168.288 139.875,192.188 199.575,132.488 	"/>
</g>
<path style="fill:#51565F;" d="M356.275,501.088c-37.5,0-75.1-14.5-104.1-43.5l-66.6-66.6l0,0c-0.9-0.9-0.9-0.9-0.9-1.7l-47.8-192
	l-21.3-21.3l-102.4,41l95.6,95.6l23-7.7c2.6-0.9,4.3,0.9,5.1,2.6c0.9,2.6-0.9,4.3-2.6,5.1l-25.6,8.5c-1.7,0.9-3.4,0-4.3-0.9
	l-102.3-102.4c-0.9-0.9-1.7-2.6-0.9-4.3c0-1.7,0.9-2.6,2.6-3.4l111-44.4l35.8-35.8c1.7-1.7,4.3-1.7,6,0s1.7,4.3,0,6l-33.3,33.3
	l21.3,21.3c0.9,0.9,0.9,0.9,0.9,1.7l46.1,186l169.8-169.8c1.7-1.7,4.3-1.7,6,0s1.7,4.3,0,6l-172.4,172.4l63.1,63.1
	c54.6,54.6,140.8,54.6,196.3,0c24.7-24.7,38.4-56.3,41-88.7c-32.4,2.6-61.4,16.2-86.2,41c-16.2,16.2-29,36.7-35,59.7
	c-0.9,2.6-3.4,3.4-5.1,2.6c-2.6-0.9-3.4-3.4-2.6-5.1c6.8-23.9,19.6-45.2,37.5-63.1c26.5-26.5,57.2-41,92.2-43.5
	c0.9-36.7-12.8-73.4-41-101.5l-62.3-65.7l-189.4-47.8l-34.1,34.1c-1.7,1.7-4.3,1.7-6,0s-1.7-4.3,0-6l33.3-33.3l-21.3-21.5
	c-0.9-0.9-1.7-3.4-0.9-4.3l41.8-99.8c0.9-1.7,1.7-2.6,3.4-2.6s2.6,0,3.4,0.9l102.4,93.9c0.9,0.9,1.7,2.6,0.9,4.3l-8.5,25.6
	c-0.9,2.6-3.4,3.4-5.1,2.6c-2.6-0.9-3.4-3.4-2.6-5.1l7.7-23l-95.6-87.9l-38.4,92.2l21.3,21.3l192,47.8c0.9,0,1.7,0.9,1.7,0.9
	l63.1,66.6c58,58,58,152.7,0,210.8C430.475,486.588,392.975,501.088,356.275,501.088z M55.875,134.188c-0.9,0-2.6,0-3.4-0.9
	l-34.1-34.1c-1.7-1.7-1.7-4.3,0-6s4.3-1.7,6,0l34.1,34.1c1.7,1.7,1.7,4.3,0,6C58.475,134.188,56.675,134.188,55.875,134.188z
	 M89.975,99.988c-0.9,0-2.6,0-3.4-0.9l-85.3-85.3c-1.7-1.7-1.7-4.3,0-6s4.3-1.7,6,0l85.3,85.3c1.7,1.7,1.7,4.3,0,6
	C92.575,99.988,90.875,99.988,89.975,99.988z M115.575,57.388c-0.9,0-2.6,0-3.4-0.9l-42.7-42.7c-1.7-1.7-1.7-4.3,0-6s4.3-1.7,6,0
	l42.7,42.7c1.7,1.7,1.7,4.3,0,6C118.175,57.388,116.475,57.388,115.575,57.388z"/>
</svg>