<?xml version="1.0" encoding="iso-8859-1"?>
<!-- Uploaded to: SVG Repo, www.svgrepo.com, Generator: SVG Repo Mixer Tools -->
<svg height="800px" width="800px" version="1.1" id="Layer_1" xmlns="http://www.w3.org/2000/svg" xmlns:xlink="http://www.w3.org/1999/xlink" 
	 viewBox="0 0 503.322 503.322" xml:space="preserve">
<g>
	<g>
		<path style="fill:#F8D832;" d="M269.018,34.712h-34.712V15.681C234.306,7.02,241.327,0,249.987,0h3.35
			c8.661,0,15.681,7.02,15.681,15.681V34.712z"/>
		<path style="fill:#F8D832;" d="M147.527,52.068h-34.712V33.037c0-8.661,7.02-15.681,15.681-15.681h3.35
			c8.661,0,15.681,7.02,15.681,15.681V52.068z"/>
		<path style="fill:#F8D832;" d="M390.51,52.068h-34.712V33.037c0-8.661,7.02-15.681,15.681-15.681h3.35
			c8.661,0,15.681,7.02,15.681,15.681V52.068z"/>
	</g>
	<path style="fill:#ACB3B7;" d="M381.832,269.017c0-71.888-58.281-130.17-130.17-130.17s-130.169,58.281-130.169,130.17
		s58.281,130.169,130.169,130.169S381.832,340.905,381.832,269.017"/>
	<path style="fill:#E8EDEE;" d="M251.662,364.475c-52.632,0-95.458-42.826-95.458-95.458s42.826-95.458,95.458-95.458
		s95.458,42.826,95.458,95.458S304.294,364.475,251.662,364.475"/>
	<path style="fill:#5E7767;" d="M190.917,112.814v-43.39c0-9.589-7.767-17.356-17.356-17.356h-86.78
		c-9.589,0-17.356,7.767-17.356,17.356v43.39H190.917z"/>
	<path style="fill:#39493F;" d="M312.408,112.814V52.068c0-9.589-7.767-17.356-17.356-17.356h-86.78
		c-9.589,0-17.356,7.767-17.356,17.356v60.746H312.408z"/>
	<g>
		<path style="fill:#5E7767;" d="M433.9,112.814v-43.39c0-9.589-7.767-17.356-17.356-17.356h-86.78
			c-9.589,0-17.356,7.767-17.356,17.356v43.39H433.9z"/>
		<path style="fill:#5E7767;" d="M69.425,425.22v60.746c0,9.589,7.767,17.356,17.356,17.356h86.78
			c9.589,0,17.356-7.767,17.356-17.356V425.22H69.425z"/>
	</g>
	<path style="fill:#39493F;" d="M190.917,425.22v60.746c0,9.589,7.767,17.356,17.356,17.356h86.78
		c9.589,0,17.356-7.767,17.356-17.356V425.22H190.917z"/>
	<g>
		<path style="fill:#5E7767;" d="M312.408,425.22v60.746c0,9.589,7.767,17.356,17.356,17.356h86.78
			c9.589,0,17.356-7.767,17.356-17.356V425.22H312.408z"/>
		<path style="fill:#5E7767;" d="M121.493,269.017c0-37.775,16.184-71.68,41.88-95.458H69.425v190.915h93.948
			C137.677,340.697,121.493,306.792,121.493,269.017"/>
	</g>
	<path style="fill:#1D281F;" d="M339.949,364.475c-23.214,21.478-54.168,34.712-88.29,34.712c-34.113,0-65.076-13.234-88.281-34.712
		H60.744v60.746h381.831v-60.746H339.949z"/>
	<path style="fill:#5E7767;" d="M339.95,173.559c25.695,23.778,41.88,57.682,41.88,95.458s-16.184,71.68-41.88,95.458h93.948
		V173.559H339.95z"/>
	<path style="fill:#1D281F;" d="M60.747,112.814v60.746h102.626c23.214-21.478,54.168-34.712,88.29-34.712
		s65.076,13.234,88.29,34.712h102.626v-60.746H60.747z"/>
	<g>
		<path style="fill:#CA3E49;" d="M251.662,277.695c-4.799,0-8.678-3.879-8.678-8.678v-60.746c0-4.799,3.879-8.678,8.678-8.678
			s8.678,3.879,8.678,8.678v60.746C260.34,273.816,256.461,277.695,251.662,277.695"/>
		<path style="fill:#CA3E49;" d="M251.662,279.025c-2.222,0-4.443-0.85-6.135-2.543c-3.393-3.393-3.393-8.878,0-12.271l35.371-35.38
			c3.393-3.393,8.886-3.393,12.271,0c3.393,3.384,3.393,8.878,0,12.271l-35.371,35.38
			C256.105,278.175,253.884,279.025,251.662,279.025"/>
	</g>
</g>
</svg>