<?xml version="1.0" encoding="iso-8859-1"?>
<!-- Uploaded to: SVG Repo, www.svgrepo.com, Generator: SVG Repo Mixer Tools -->
<svg fill="#000000" height="800px" width="800px" version="1.1" id="Layer_1" xmlns="http://www.w3.org/2000/svg" xmlns:xlink="http://www.w3.org/1999/xlink" 
	 viewBox="0 0 512.001 512.001" xml:space="preserve">
<g>
	<g>
		<path d="M480.319,341.957H460.37c-4.192-27.16-27.325-48.135-55.434-48.999c4.504-8.233,7.069-17.673,7.069-27.701
			c0-31.392-25.11-57.011-56.296-57.873c4.614-8.309,7.252-17.86,7.252-28.019c0-31.461-25.223-57.125-56.505-57.877
			c4.74-8.394,7.46-18.074,7.46-28.381c0-31.933-25.981-57.914-57.914-57.914s-57.914,25.98-57.914,57.914
			c0,10.307,2.72,19.987,7.46,28.381c-31.284,0.752-56.506,26.416-56.506,57.877c0,10.16,2.638,19.71,7.252,28.019
			c-31.187,0.862-56.296,26.481-56.296,57.873c0,10.028,2.565,19.468,7.069,27.701c-28.108,0.864-51.243,21.84-55.434,48.999H31.68
			C14.212,341.957,0,356.169,0,373.638c0,17.468,14.212,31.68,31.68,31.68h6.314v6.78c0,35.682,29.029,64.711,64.712,64.711h306.589
			c35.682,0,64.711-29.029,64.711-64.711v-6.78h6.314c17.468,0,31.681-14.212,31.681-31.68
			C512,356.169,497.787,341.957,480.319,341.957z M403.136,310.648c19.106,0,35.128,13.41,39.178,31.309h-78.356
			C368.007,324.058,384.03,310.648,403.136,310.648z M354.09,225.08c22.154,0,40.177,18.023,40.177,40.177
			c0,22.153-18.023,40.177-40.177,40.177c-22.154,0-40.177-18.024-40.177-40.177C313.913,243.104,331.936,225.08,354.09,225.08z
			 M215.823,265.257c0-22.153,18.024-40.177,40.177-40.177s40.177,18.023,40.177,40.177c0,22.154-18.023,40.177-40.177,40.177
			S215.823,287.411,215.823,265.257z M246.132,341.958h-78.357c4.051-17.9,20.074-31.309,39.179-31.309
			C226.06,310.649,242.083,324.058,246.132,341.958z M305.046,310.649c19.106,0,35.128,13.409,39.178,31.309h-78.356
			C269.917,324.058,285.94,310.649,305.046,310.649z M305.046,139.188c22.154,0,40.176,18.024,40.176,40.177
			c0,22.153-18.023,40.177-40.177,40.177c-22.154,0-40.176-18.024-40.176-40.177C264.868,157.212,282.891,139.188,305.046,139.188z
			 M256,52.93c22.153,0,40.177,18.023,40.177,40.177S278.154,133.284,256,133.284s-40.177-18.024-40.177-40.177
			C215.823,70.954,233.847,52.93,256,52.93z M206.954,139.188c22.153,0,40.177,18.023,40.177,40.177
			c0,22.154-18.023,40.177-40.177,40.177c-22.154,0-40.178-18.023-40.178-40.177C166.776,157.211,184.801,139.188,206.954,139.188z
			 M157.909,225.08c22.153,0,40.178,18.023,40.178,40.177c0,22.154-18.024,40.177-40.178,40.177s-40.177-18.024-40.177-40.177
			C117.732,243.104,135.756,225.08,157.909,225.08z M108.863,310.649c19.106,0,35.128,13.409,39.178,31.309H69.685
			C73.735,324.058,89.758,310.649,108.863,310.649z M409.294,459.072H102.705c-25.902,0-46.975-21.072-46.975-46.974v-6.78h400.536
			v6.78h0.001C456.268,438,435.195,459.072,409.294,459.072z M480.319,387.582H31.68c-7.688,0-13.943-6.255-13.943-13.943
			s6.255-13.943,13.943-13.943h448.638c7.689,0,13.945,6.255,13.945,13.943C494.263,381.326,488.008,387.582,480.319,387.582z"/>
	</g>
</g>
</svg>