<?xml version="1.0" encoding="iso-8859-1"?>
<!-- Uploaded to: SVG Repo, www.svgrepo.com, Generator: SVG Repo Mixer Tools -->
<svg version="1.1" id="Layer_1" xmlns="http://www.w3.org/2000/svg" xmlns:xlink="http://www.w3.org/1999/xlink" 
	 viewBox="0 0 512 512" xml:space="preserve">
<circle style="fill:#FFFE9F;" cx="473.043" cy="200.348" r="27.826"/>
<g>
	<rect x="311.652" y="111.304" style="fill:#87DFD6;" width="33.391" height="178.087"/>
	<rect x="378.435" y="111.304" style="fill:#87DFD6;" width="33.391" height="178.087"/>
</g>
<g>
	<rect x="278.261" y="155.826" style="fill:#DFF5F2;" width="33.391" height="89.043"/>
	<rect x="345.043" y="155.826" style="fill:#DFF5F2;" width="33.391" height="89.043"/>
	<rect x="411.826" y="155.826" style="fill:#DFF5F2;" width="33.391" height="89.043"/>
</g>
<polygon style="fill:#4A7DBA;" points="122.435,133.565 55.652,133.565 11.13,133.565 11.13,267.13 11.13,400.696 100.174,400.696 
	100.174,267.13 278.261,267.13 278.261,133.565 "/>
<path d="M89.055,144.696c6.147,0,11.13-4.983,11.13-11.13c0-6.147-4.983-11.13-11.13-11.13h-0.011
	c-6.146,0-11.125,4.983-11.125,11.13C77.919,139.713,82.907,144.696,89.055,144.696z"/>
<path d="M473.043,161.391c-5.971,0-11.632,1.355-16.696,3.767v-9.332c0-6.147-4.984-11.13-11.13-11.13h-22.261v-33.391
	c0-6.147-4.984-11.13-11.13-11.13h-33.391c-6.146,0-11.13,4.983-11.13,11.13v33.391h-11.13v-33.391c0-6.147-4.984-11.13-11.13-11.13
	h-33.391c-6.146,0-11.13,4.983-11.13,11.13v33.391h-11.13v-11.13c0-6.147-4.984-11.13-11.13-11.13H122.435
	c-6.146,0-11.13,4.983-11.13,11.13c0,6.147,4.984,11.13,11.13,11.13H267.13v11.13v89.043V256H100.174
	c-6.146,0-11.13,4.983-11.13,11.13v122.435H22.261v-244.87h33.391c6.146,0,11.13-4.983,11.13-11.13c0-6.147-4.984-11.13-11.13-11.13
	H11.13c-6.146,0-11.13,4.983-11.13,11.13v267.13c0,6.147,4.984,11.13,11.13,11.13h89.043c6.146,0,11.13-4.983,11.13-11.13v-56.766
	c25.577-5.177,44.892-27.828,44.892-54.91v-10.759h122.064c6.146,0,11.13-4.983,11.13-11.13V256h11.13v33.391
	c0,6.147,4.984,11.13,11.13,11.13h33.391c6.146,0,11.13-4.983,11.13-11.13V256h11.13v33.391c0,6.147,4.984,11.13,11.13,11.13h33.391
	c6.146,0,11.13-4.983,11.13-11.13V256h22.261c6.146,0,11.13-4.983,11.13-11.13v-9.332c5.063,2.412,10.724,3.767,16.696,3.767
	c21.481,0,38.957-17.476,38.957-38.957S494.524,161.391,473.043,161.391z M133.936,289.021c0,14.718-9.469,27.257-22.632,31.869
	v-42.628h22.632V289.021z M289.391,233.739v-66.783h11.13v66.783H289.391z M333.913,278.261h-11.13V244.87v-89.043v-33.391h11.13
	v33.391v89.043V278.261z M356.174,233.739v-66.783h11.13v66.783H356.174z M400.696,278.261h-11.13V244.87v-89.043v-33.391h11.13
	v33.391v89.043V278.261z M434.087,233.739h-11.13v-66.783h11.13V233.739z M473.043,217.043c-9.206,0-16.696-7.49-16.696-16.696
	c0-9.206,7.49-16.696,16.696-16.696s16.696,7.49,16.696,16.696C489.739,209.554,482.249,217.043,473.043,217.043z"/>
</svg>