<?xml version="1.0" encoding="iso-8859-1"?>
<!-- Uploaded to: SVG Repo, www.svgrepo.com, Generator: SVG Repo Mixer Tools -->
<svg height="800px" width="800px" version="1.1" id="Layer_1" xmlns="http://www.w3.org/2000/svg" xmlns:xlink="http://www.w3.org/1999/xlink" 
	 viewBox="0 0 511.787 511.787" xml:space="preserve">
<g transform="translate(1 1)">
	<path style="fill:#FFE100;" d="M254.893,7.32c0,0-57.173,68.267-187.733,68.267v162.987c0,85.333,36.693,167.253,104.107,219.307
		c23.893,18.773,51.2,34.987,83.627,44.373c32.427-9.387,60.587-25.6,83.627-44.373c67.413-52.053,104.107-133.973,104.107-219.307
		V75.587C312.067,75.587,254.893,7.32,254.893,7.32"/>
	<path style="fill:#FFA800;" d="M417.027,75.587v162.987c0,85.333-36.693,167.253-104.107,219.307
		c-20.48,16.213-44.373,29.867-70.827,40.107c4.267,1.707,8.533,2.56,12.8,4.267c32.427-9.387,60.587-25.6,83.627-44.373
		c67.413-52.053,104.107-133.973,104.107-219.307V75.587H417.027z"/>
	<path style="fill:#FFFFFF;" d="M92.76,75.587v162.987c0,85.333,36.693,167.253,104.107,219.307
		c20.48,16.213,44.373,29.867,70.827,40.107c-4.267,1.707-8.533,2.56-12.8,4.267c-32.427-9.387-60.587-25.6-83.627-44.373
		C103.853,405.827,67.16,323.907,67.16,238.573V75.587H92.76z"/>
	<path style="fill:#FFE100;" d="M254.893,451.053c-17.92-6.827-35.84-20.48-52.053-33.28c-52.907-41.813-84.48-108.373-84.48-179.2
		v-115.2c63.147-7.68,107.52-28.16,136.533-47.787c29.013,19.627,73.387,40.107,136.533,47.787v115.2
		c0,70.827-31.573,138.24-84.48,179.2C290.733,430.573,272.813,444.227,254.893,451.053"/>
	<path d="M254.893,510.787c-0.853,0-1.707,0-2.56,0c-30.72-9.387-59.733-24.747-87.04-46.08
		C98.733,411.8,58.627,327.32,58.627,238.573V75.587c0-5.12,3.413-8.533,8.533-8.533C192.6,67.053,248.067,2.2,248.067,2.2
		c3.413-4.267,10.24-4.267,12.8,0c0.853,0,57.173,64.853,181.76,64.853c5.12,0,8.533,3.413,8.533,8.533v162.987
		c0,88.747-40.107,173.227-106.667,226.133c-27.307,21.333-56.32,36.693-87.04,46.08C256.6,510.787,255.747,510.787,254.893,510.787
		z M75.693,84.12v154.453c0,83.627,37.547,162.987,100.693,212.48c24.747,19.627,51.2,33.28,78.507,41.813
		c27.307-8.533,53.76-23.04,78.507-41.813c63.147-49.493,100.693-128.853,100.693-212.48V84.12
		c-104.107-2.56-161.28-46.933-179.2-64.853C236.973,37.187,179.8,81.56,75.693,84.12z"/>
	<path d="M254.893,459.587c-0.853,0-1.707,0-3.413-0.853c-19.627-7.68-38.4-22.187-54.613-34.133
		c-54.613-43.52-87.04-112.64-87.04-186.027v-115.2c0-4.267,3.413-7.68,7.68-8.533c65.707-8.533,108.373-29.867,133.12-46.933
		c2.56-1.707,6.827-1.707,9.387,0c24.747,17.067,67.413,38.4,133.12,46.933c4.267,0.853,7.68,4.267,7.68,8.533v115.2
		c0,73.387-32.427,143.36-87.893,186.027c-17.067,13.653-34.987,26.453-54.613,34.133
		C256.6,459.587,255.747,459.587,254.893,459.587z M126.893,131.053v107.52c0,68.267,29.867,133.12,81.067,172.373
		c14.507,11.093,30.72,23.893,46.933,30.72c16.213-6.827,32.427-18.773,46.933-30.72c50.347-40.107,81.067-104.107,81.067-172.373
		v-107.52c-60.587-8.533-102.4-29.013-128-45.227C229.293,102.04,187.48,122.52,126.893,131.053z"/>
	<path d="M254.893,365.72c-5.12,0-8.533-3.413-8.533-8.533v-204.8c0-5.12,3.413-8.533,8.533-8.533s8.533,3.413,8.533,8.533v204.8
		C263.427,362.307,260.013,365.72,254.893,365.72z"/>
	<path d="M254.893,348.653c-21.333,0-39.253-7.68-49.493-20.48c-2.56-3.413-2.56-9.387,1.707-11.947
		c3.413-2.56,9.387-2.56,11.947,1.707c6.827,8.533,20.48,13.653,35.84,13.653c20.48,0,42.667-12.8,42.667-34.133
		c0-20.48-22.187-34.133-42.667-34.133c-29.013,0-59.733-19.627-59.733-51.2s30.72-51.2,59.733-51.2
		c21.333,0,39.253,6.827,49.493,20.48c2.56,3.413,2.56,9.387-1.707,11.947c-3.413,2.56-9.387,2.56-11.947-1.707
		c-6.827-8.533-19.627-13.653-35.84-13.653c-20.48,0-42.667,13.653-42.667,34.133c0,21.333,22.187,34.133,42.667,34.133
		c29.013,0,59.733,19.627,59.733,51.2S283.907,348.653,254.893,348.653z"/>
	<path d="M297.56,220.653c-5.12,0-8.533-3.413-8.533-8.533v-51.2c0-5.12,3.413-8.533,8.533-8.533c5.12,0,8.533,3.413,8.533,8.533
		v51.2C306.093,217.24,302.68,220.653,297.56,220.653z"/>
	<path d="M212.227,357.187c-5.12,0-8.533-3.413-8.533-8.533v-51.2c0-5.12,3.413-8.533,8.533-8.533c5.12,0,8.533,3.413,8.533,8.533
		v51.2C220.76,353.773,217.347,357.187,212.227,357.187z"/>
</g>
</svg>